<svg xmlns="http://www.w3.org/2000/svg" xmlns:xlink="http://www.w3.org/1999/xlink" viewBox="0 0 362.21 450.55"><defs><style>.cls-1,.cls-18,.cls-19,.cls-20{fill:none;}.cls-2{fill:#8ab1ff;}.cls-3{fill:#4771c7;}.cls-4{fill:#412111;}.cls-5{fill:#f5f2ef;}.cls-18,.cls-19,.cls-20,.cls-21,.cls-22,.cls-23,.cls-6,.cls-7,.cls-8,.cls-9{stroke:#000;}.cls-12,.cls-13,.cls-16,.cls-18,.cls-20,.cls-6,.cls-9{stroke-linecap:round;}.cls-12,.cls-13,.cls-16,.cls-18,.cls-6,.cls-9{stroke-linejoin:round;}.cls-18,.cls-19,.cls-20,.cls-23,.cls-6,.cls-7,.cls-8,.cls-9{stroke-width:2px;}.cls-6{fill:url(#linear-gradient);}.cls-15,.cls-19,.cls-20,.cls-21,.cls-22,.cls-23,.cls-24,.cls-7,.cls-8{stroke-miterlimit:10;}.cls-7{fill:url(#linear-gradient-2);}.cls-8{fill:url(#linear-gradient-3);}.cls-9{fill:url(#linear-gradient-4);}.cls-10{fill:url(#_10_dpi_40_2);}.cls-11{fill:url(#_10_dpi_40_);}.cls-12{fill:#22509d;stroke:#22509d;}.cls-12,.cls-13,.cls-16,.cls-21,.cls-22{stroke-width:4px;}.cls-13,.cls-15{fill:#5994fc;stroke:#5994fc;}.cls-14,.cls-16{fill:#3d6bc0;}.cls-16{stroke:#3d6bc0;}.cls-17{fill:#feebfe;}.cls-22{fill:#070707;}.cls-24,.cls-25{fill:#fff;}.cls-24{stroke:#fff;stroke-width:3px;}.cls-26{fill:#5761ff;}</style><linearGradient id="linear-gradient" x1="490.41" y1="615.16" x2="332.4" y2="806.74" gradientUnits="userSpaceOnUse"><stop offset="0" stop-color="#e8ffed"/><stop offset="0.53" stop-color="#dffffa"/><stop offset="1" stop-color="#badeff"/></linearGradient><linearGradient id="linear-gradient-2" x1="397.65" y1="496.95" x2="362.48" y2="539.59" gradientUnits="userSpaceOnUse"><stop offset="0" stop-color="#e8ffed"/><stop offset="0.72" stop-color="#dffffa"/><stop offset="1" stop-color="#badeff"/></linearGradient><linearGradient id="linear-gradient-3" x1="324.86" y1="536.94" x2="274.46" y2="598.05" xlink:href="#linear-gradient-2"/><linearGradient id="linear-gradient-4" x1="318.69" y1="757.97" x2="292.54" y2="789.68" gradientUnits="userSpaceOnUse"><stop offset="0" stop-color="#e8ffed"/><stop offset="0" stop-color="#dffffa"/><stop offset="0.41" stop-color="#badeff"/></linearGradient><pattern id="_10_dpi_40_2" data-name="10 dpi 40% 2" width="28.8" height="28.8" patternUnits="userSpaceOnUse" viewBox="0 0 28.8 28.8"><rect class="cls-1" width="28.8" height="28.8"/><path class="cls-3" d="M28.8,31.68a2.88,2.88,0,1,0-2.88-2.88A2.88,2.88,0,0,0,28.8,31.68Z"/><path class="cls-3" d="M14.4,31.68a2.88,2.88,0,1,0-2.88-2.88A2.88,2.88,0,0,0,14.4,31.68Z"/><path class="cls-3" d="M28.8,17.28a2.88,2.88,0,1,0-2.88-2.88A2.88,2.88,0,0,0,28.8,17.28Z"/><path class="cls-3" d="M14.4,17.28a2.88,2.88,0,1,0-2.88-2.88A2.88,2.88,0,0,0,14.4,17.28Z"/><path class="cls-3" d="M7.2,24.48A2.88,2.88,0,1,0,4.32,21.6,2.88,2.88,0,0,0,7.2,24.48Z"/><path class="cls-3" d="M21.6,24.48a2.88,2.88,0,1,0-2.88-2.88A2.88,2.88,0,0,0,21.6,24.48Z"/><path class="cls-3" d="M7.2,10.08A2.88,2.88,0,1,0,4.32,7.2,2.88,2.88,0,0,0,7.2,10.08Z"/><path class="cls-3" d="M21.6,10.08A2.88,2.88,0,1,0,18.72,7.2,2.88,2.88,0,0,0,21.6,10.08Z"/><path class="cls-3" d="M0,31.68A2.88,2.88,0,0,0,2.88,28.8,2.88,2.88,0,0,0,0,25.92a2.88,2.88,0,0,0,0,5.76Z"/><path class="cls-3" d="M0,17.28A2.88,2.88,0,0,0,2.88,14.4,2.88,2.88,0,0,0,0,11.52a2.88,2.88,0,0,0,0,5.76Z"/><path class="cls-3" d="M28.8,2.88A2.88,2.88,0,0,0,31.68,0a2.88,2.88,0,0,0-5.76,0A2.88,2.88,0,0,0,28.8,2.88Z"/><path class="cls-3" d="M14.4,2.88A2.88,2.88,0,0,0,17.28,0a2.88,2.88,0,0,0-5.76,0A2.88,2.88,0,0,0,14.4,2.88Z"/><path class="cls-3" d="M0,2.88A2.88,2.88,0,0,0,2.88,0,2.88,2.88,0,0,0,0-2.88,2.88,2.88,0,0,0-2.88,0,2.88,2.88,0,0,0,0,2.88Z"/></pattern><pattern id="_10_dpi_40_" data-name="10 dpi 40%" width="28.8" height="28.8" patternUnits="userSpaceOnUse" viewBox="0 0 28.8 28.8"><rect class="cls-1" width="28.8" height="28.8"/><path class="cls-2" d="M28.8,31.68a2.88,2.88,0,1,0-2.88-2.88A2.88,2.88,0,0,0,28.8,31.68Z"/><path class="cls-2" d="M14.4,31.68a2.88,2.88,0,1,0-2.88-2.88A2.88,2.88,0,0,0,14.4,31.68Z"/><path class="cls-2" d="M28.8,17.28a2.88,2.88,0,1,0-2.88-2.88A2.88,2.88,0,0,0,28.8,17.28Z"/><path class="cls-2" d="M14.4,17.28a2.88,2.88,0,1,0-2.88-2.88A2.88,2.88,0,0,0,14.4,17.28Z"/><path class="cls-2" d="M7.2,24.48A2.88,2.88,0,1,0,4.32,21.6,2.88,2.88,0,0,0,7.2,24.48Z"/><path class="cls-2" d="M21.6,24.48a2.88,2.88,0,1,0-2.88-2.88A2.88,2.88,0,0,0,21.6,24.48Z"/><path class="cls-2" d="M7.2,10.08A2.88,2.88,0,1,0,4.32,7.2,2.88,2.88,0,0,0,7.2,10.08Z"/><path class="cls-2" d="M21.6,10.08A2.88,2.88,0,1,0,18.72,7.2,2.88,2.88,0,0,0,21.6,10.08Z"/><path class="cls-2" d="M0,31.68A2.88,2.88,0,0,0,2.88,28.8,2.88,2.88,0,0,0,0,25.92a2.88,2.88,0,0,0,0,5.76Z"/><path class="cls-2" d="M0,17.28A2.88,2.88,0,0,0,2.88,14.4,2.88,2.88,0,0,0,0,11.52a2.88,2.88,0,0,0,0,5.76Z"/><path class="cls-2" d="M28.8,2.88A2.88,2.88,0,0,0,31.68,0a2.88,2.88,0,0,0-5.76,0A2.88,2.88,0,0,0,28.8,2.88Z"/><path class="cls-2" d="M14.4,2.88A2.88,2.88,0,0,0,17.28,0a2.88,2.88,0,0,0-5.76,0A2.88,2.88,0,0,0,14.4,2.88Z"/><path class="cls-2" d="M0,2.88A2.88,2.88,0,0,0,2.88,0,2.88,2.88,0,0,0,0-2.88,2.88,2.88,0,0,0-2.88,0,2.88,2.88,0,0,0,0,2.88Z"/></pattern></defs><g id="Sandwich_copy" data-name="Sandwich copy"><path class="cls-4" d="M266.06,852.59a11.5,11.5,0,0,0,4.84,7.89C275.3,863.42,440.75,922,440.75,922s13.6-6,16.23-5.44,7.5-6.83,7.5-6.83.76-3.06,10.76-5,16.32-2.45,16.32-2.45,13.28-5.68,23.13-3.39S536,897.71,536,897.71s16-3.59,17.32,1S580,879.8,580,879.8l24.8-21.51s10.34-11.58,2.42-17.37L555.07,886l-4.25-1.29-3.22.62-1.06-2.24L537,884l-5.14,2.29-5.43,1-6.58-.41-21.9,1.78L491.59,893s-32.14.86-35.74,14.67c0,0-12.51,2.77-14.11,6.08s-1-3.9-9.78-3.46Z" transform="translate(-248.02 -471.43)"/><path class="cls-5" d="M256.55,829.9s3.27,16.42,9.51,22.69L432,910.28s3.14-1.65,9.78,3.46c0,0,7.47-7.16,14.11-6.08,0,0,.81-12.23,35.74-14.67l6.33-4.39,21.9-1.78,6.58.41s8.84-1.45,9-3.79.11,1.19.11,1.19l11.06-1.52,1.06,2.24,3.22-.62,4.25,1.29,52.17-45.1s1.2-13.6-10.89-27.51c0,0,1.66-6.47-9.87-14.11,0,0-1-3.9-3.06-5.39s1.56-1.8-9.68-12-.25.79-.25.79-7.37,18.21-39,45.67l-.49,2.2-2.39.22L529.85,833l-8.24-3.6-14,1.25-.72,1.56-14.82,0-12,1.07-1.52,2.3-7.84,4.86-11.8,1-1.05,1.76-3.41.31-13.09,9.82L440,859.11l-6.68,6.26-.54,5.54-3.19,3-169-40.93S258.56,832.78,256.55,829.9Z" transform="translate(-248.02 -471.43)"/><path class="cls-4" d="M260.53,832.93s-10.49-5.56-4.91-12.55S284.78,782,284.78,782a21,21,0,0,1,11.63-6.7c7.3-1.31,171.7-6.93,171.7-6.93l80.6-.5s28.81.43,25,14.09-39.3,46.46-39.3,46.46l-.49,2.2-2.39.22L529.85,833l-8.24-3.6-14,1.25-.72,1.56-14.82,0-12,1.07-1.52,2.3-7.84,4.86-11.8,1-1.05,1.76-3.41.31-13.09,9.82L440,859.11l-6.68,6.26-.54,5.54-3.19,3Z" transform="translate(-248.02 -471.43)"/></g><g id="Complete_Bunny_copy" data-name="Complete Bunny copy"><path class="cls-6" d="M355.19,576.69a67.88,67.88,0,0,1,16.24-16c12.82-8.92,35.42-21.56,57.85-19,34,3.89,54.46,22.92,54,61,0,0,48.08,21.19-9.36,76.11,0,0,4.25,18.59.43,33.73,0,0,18.72,10,15.74,21.62a65.15,65.15,0,0,0-25.44,15s26.86-28.06,50.12-7.69-5.49,56.13-14.57,62.66c-8.73,6.29-51.62,22.3-49.54-23.06L450.45,792a3,3,0,0,1-1.91,2.73l-78.47,29.4q-5.94,2.24-11.66,5c-9.51,4.55-31.37,13.64-40.28,5.77-11.4-10.07-4.51-22,4.23-30.27a.44.44,0,0,0,0-.6c-2.21-2.57-15.9-23.69-4-58.55l35.47-13s-49.59,27.29-67.5,6.15-1.89-37.86,4.16-42.09a199.21,199.21,0,0,1,61.83-28.25s-17.52-22.93-7.72-69.57a50.65,50.65,0,0,1,7.91-18.37Z" transform="translate(-248.02 -471.43)"/><path class="cls-7" d="M380.81,554.71s-52.37-56.24-38.33-74c24.22-30.59,82.12,44.83,86.8,61C429.28,541.71,407.08,536.57,380.81,554.71Z" transform="translate(-248.02 -471.43)"/><path class="cls-8" d="M375.79,557.79s-78.41-37.14-114.15-22.32c-7.37,3-15.33,10.85-11.72,19.73,5.77,14.19,76.54,33.28,97.42,34.74C347.34,589.94,357.9,566.66,375.79,557.79Z" transform="translate(-248.02 -471.43)"/><path class="cls-9" d="M315.56,755.39s-19.14-9.7-26.84,10.26a23.33,23.33,0,0,0,3.28,23c4.39,5.44,11.74,9.47,23.56,3.85C315.56,792.53,309.78,770.42,315.56,755.39Z" transform="translate(-248.02 -471.43)"/><path class="cls-10" d="M314.35,764.37s24.21-23.64,40.85-31.32c0,0-29.88,14.8-20.42,53.43s63.34,15.18,63.34,15.18l50.3-18.83L439,797.43l-60.7,21.15S349.34,829.53,327,806.66C327,806.66,310.19,793.4,314.35,764.37Z" transform="translate(-248.02 -471.43)"/><path class="cls-11" d="M261.64,535.47s81.69,49,104.17,29.21h0s-25.17,59.77,23.05,103c0,0-31.62,11.87-78.5,16.89h0s32.17-15.16,42-16.31h0s-21-31.56-5-78.34h0S267,575.32,249.92,555.2c0,0-4.84-12.61,11.72-19.73" transform="translate(-248.02 -471.43)"/><path class="cls-10" d="M287.5,770a30.06,30.06,0,0,1,25.57-1.35h0s-1.35,17.28,2.49,23.93h0S285,802.24,287.5,770Z" transform="translate(-248.02 -471.43)"/><path class="cls-10" d="M314.35,764.37s24.21-23.64,40.85-31.32c0,0-29.88,14.8-20.42,53.43s63.34,15.18,63.34,15.18l50.3-18.83L439,797.43l-60.7,21.15S349.34,829.53,327,806.66C327,806.66,310.19,793.4,314.35,764.37Z" transform="translate(-248.02 -471.43)"/><ellipse class="cls-12" cx="484.09" cy="783.01" rx="34.63" ry="26.06" transform="translate(-585.53 -103.67) rotate(-31.46)"/><path class="cls-13" d="M357.66,473.53s9.24,57.63,45.93,70.16c0,0-16.64,4.7-22.78,11,0,0-56.91-61.37-35.31-77.11C345.5,477.6,352.2,472.71,357.66,473.53Z" transform="translate(-248.02 -471.43)"/><path class="cls-10" d="M492.17,657.86s-28.86,22.24-40.34,23.53c0,0,24.24,13.89,24.14,17.3s-2-19.89-2-19.89Z" transform="translate(-248.02 -471.43)"/><path id="shadow" class="cls-10" d="M314.35,764.37s24.21-23.64,40.85-31.32c0,0-29.88,14.8-20.42,53.43s63.34,15.18,63.34,15.18l50.3-18.83L439,797.43l-60.7,21.15S349.34,829.53,327,806.66C327,806.66,310.19,793.4,314.35,764.37Z" transform="translate(-248.02 -471.43)"/><path id="shadow-2" data-name="shadow" class="cls-14" d="M492.17,657.86s-28.86,22.24-40.34,23.53c0,0,24.24,13.89,24.14,17.3s-2-19.89-2-19.89Z" transform="translate(-248.02 -471.43)"/><path id="shadow-3" data-name="shadow" class="cls-15" d="M261.64,535.47s81.69,49,104.17,29.21h0s-25.17,59.77,23.05,103c0,0-31.62,11.87-78.5,16.89h0s32.17-15.16,42-16.31h0s-21-31.56-5-78.34h0S267,575.32,249.92,555.2c0,0-4.84-12.61,11.72-19.73" transform="translate(-248.02 -471.43)"/><path id="shadow-4" data-name="shadow" class="cls-16" d="M287.5,770a30.06,30.06,0,0,1,25.57-1.35h0s-1.35,17.28,2.49,23.93h0S285,802.24,287.5,770Z" transform="translate(-248.02 -471.43)"/><path id="shadow-5" data-name="shadow" class="cls-16" d="M314.35,764.37s24.21-23.64,40.85-31.32c0,0-29.88,14.8-20.42,53.43s63.34,15.18,63.34,15.18l50.3-18.83L439,797.43l-60.7,21.15S349.34,829.53,327,806.66C327,806.66,310.19,793.4,314.35,764.37Z" transform="translate(-248.02 -471.43)"/><path id="shadow-6" data-name="shadow" class="cls-11" d="M261.64,535.47s81.69,49,104.17,29.21h0s-25.17,59.77,23.05,103c0,0-31.62,11.87-78.5,16.89h0s32.17-15.16,42-16.31h0s-21-31.56-5-78.34h0S267,575.32,249.92,555.2c0,0-4.84-12.61,11.72-19.73" transform="translate(-248.02 -471.43)"/><path id="shadow-7" data-name="shadow" class="cls-10" d="M287.5,770a30.06,30.06,0,0,1,25.57-1.35h0s-1.35,17.28,2.49,23.93h0S285,802.24,287.5,770Z" transform="translate(-248.02 -471.43)"/><path id="shadow-8" data-name="shadow" class="cls-10" d="M314.35,764.37s24.21-23.64,40.85-31.32c0,0-29.88,14.8-20.42,53.43s63.34,15.18,63.34,15.18l50.3-18.83L439,797.43l-60.7,21.15S349.34,829.53,327,806.66C327,806.66,310.19,793.4,314.35,764.37Z" transform="translate(-248.02 -471.43)"/><ellipse id="shadow-9" data-name="shadow" class="cls-10" cx="484.09" cy="783.01" rx="34.63" ry="26.06" transform="translate(-585.53 -103.67) rotate(-31.46)"/><path id="shadow-10" data-name="shadow" class="cls-11" d="M357.66,473.53s9.24,57.63,45.93,70.16c0,0-16.64,4.7-22.78,11,0,0-56.91-61.37-35.31-77.11C345.5,477.6,352.2,472.71,357.66,473.53Z" transform="translate(-248.02 -471.43)"/><path id="shadow-11" data-name="shadow" class="cls-10" d="M492.17,657.86s-28.86,22.24-40.34,23.53c0,0,24.24,13.89,24.14,17.3s-2-19.89-2-19.89Z" transform="translate(-248.02 -471.43)"/><path id="light" class="cls-17" d="M360.36,473.78s61.25,47.8,54.87,67.6c0,0,10.22-2.7,14,.33C429.28,541.71,391,477.21,360.36,473.78Z" transform="translate(-248.02 -471.43)"/><path id="light-2" data-name="light" class="cls-17" d="M394.82,546.87s75.44-14.9,83,58.88c0,0,26.69,9.85,22.07,37.31,0,0,10.43-27.67-17.73-40.78C482.15,602.28,489.86,525.21,394.82,546.87Z" transform="translate(-248.02 -471.43)"/><path id="body" class="cls-18" d="M355.19,576.69a67.88,67.88,0,0,1,16.24-16c12.82-8.92,35.42-21.56,57.85-19,34,3.89,54.46,22.92,54,61,0,0,48.08,21.19-9.36,76.11,0,0,4.25,18.59.43,33.73,0,0,18.72,10,15.74,21.62a65.15,65.15,0,0,0-25.44,15s26.86-28.06,50.12-7.69-5.49,56.13-14.57,62.66c-8.73,6.29-51.62,22.3-49.54-23.06L450.45,792a3,3,0,0,1-1.91,2.73l-78.47,29.4q-5.94,2.24-11.66,5c-9.51,4.55-31.37,13.64-40.28,5.77-11.4-10.07-4.51-22,4.23-30.27a.44.44,0,0,0,0-.6c-2.21-2.57-15.9-23.69-4-58.55l35.47-13s-49.59,27.29-67.5,6.15-1.89-37.86,4.16-42.09a199.21,199.21,0,0,1,61.83-28.25s-17.52-22.93-7.72-69.57a50.65,50.65,0,0,1,7.91-18.37Z" transform="translate(-248.02 -471.43)"/><path id="ear" class="cls-19" d="M380.81,554.71s-52.37-56.24-38.33-74c24.22-30.59,82.12,44.83,86.8,61C429.28,541.71,407.08,536.57,380.81,554.71Z" transform="translate(-248.02 -471.43)"/><path id="tail" class="cls-19" d="M375.79,557.79s-78.41-37.14-114.15-22.32c-7.37,3-15.33,10.85-11.72,19.73,5.77,14.19,76.54,33.28,97.42,34.74C347.34,589.94,357.9,566.66,375.79,557.79Z" transform="translate(-248.02 -471.43)"/><path id="tail-2" data-name="tail" class="cls-18" d="M315.56,755.39s-19.14-9.7-26.84,10.26a23.33,23.33,0,0,0,3.28,23c4.39,5.44,11.74,9.47,23.56,3.85C315.56,792.53,309.78,770.42,315.56,755.39Z" transform="translate(-248.02 -471.43)"/><path id="belly" d="M313.88,766.38l40-33.91-35.47,13S312.86,763.16,313.88,766.38Z" transform="translate(-248.02 -471.43)"/><path id="tail-3" data-name="tail" d="M293.3,790.14s14.44-1,20.58-23.76c0,0-.59,16.45,1.68,26.15C315.56,792.53,302.62,800.87,293.3,790.14Z" transform="translate(-248.02 -471.43)"/><path id="paw" d="M449.82,781s-6.34,13.83-11.26,15.63-59.6,21.59-59.67,21.61h0c-.05,0-26.53,13.7-57.7-17.7a.66.66,0,0,0-1,.85l2.09,3.13a.17.17,0,0,1,0,.22C321,806,307.8,819.45,313.75,829.5c6.26,10.56,18,13.46,65.87-8.9h0l69.92-26.41a.15.15,0,0,0,.11-.16Z" transform="translate(-248.02 -471.43)"/><path id="ear-2" data-name="ear" d="M353.75,578.12s-3,11.74-85.29-9.93c-.27.54,74.69,26.29,78.33,21.42A106.78,106.78,0,0,0,353.75,578.12Z" transform="translate(-248.02 -471.43)"/><path id="ear-3" data-name="ear" d="M340.18,490.41s31,61.41,57.83,55.16l-17.2,9.14S338.8,505.74,340.18,490.41Z" transform="translate(-248.02 -471.43)"/><path id="paw-2" data-name="paw" class="cls-19" d="M503.14,801.69c-9.15,7.56-21.77,12.94-25.55,7.74-5.16-7.1-2.32-14.91,5.39-23.64s19.38-10.42,24.12-6.1S512.1,794.29,503.14,801.69Z" transform="translate(-248.02 -471.43)"/><path id="paw-3" data-name="paw" class="cls-20" d="M501.86,734.72a14.06,14.06,0,0,1,.38,15" transform="translate(-248.02 -471.43)"/><path id="paw-4" data-name="paw" class="cls-20" d="M278.18,717.6c4.06-1.46,7.34-2.73,11.39-4.18" transform="translate(-248.02 -471.43)"/><path id="paw-5" data-name="paw" class="cls-20" d="M285.87,737.76a14.47,14.47,0,0,1,9.64-8" transform="translate(-248.02 -471.43)"/><ellipse id="eye" class="cls-21" cx="432.25" cy="600.96" rx="5.96" ry="11.13" transform="translate(-279.5 -447.49) rotate(-3.06)"/><ellipse id="eye-2" data-name="eye" class="cls-22" cx="475.23" cy="595.01" rx="3.83" ry="11.03" transform="translate(-279.39 -444.97) rotate(-3.09)"/><ellipse id="nose" class="cls-23" cx="461" cy="601.45" rx="7.02" ry="3.62" transform="translate(-281.29 -444.4) rotate(-3.24)"/><path id="eyebrow" class="cls-20" d="M421.76,566.87s5.86-4.8,12.1-4.61" transform="translate(-248.02 -471.43)"/><path id="eyebrow-2" data-name="eyebrow" class="cls-20" d="M472.57,563.32s-5.81-.87-6.56,0" transform="translate(-248.02 -471.43)"/><path id="mouth" class="cls-18" d="M446.72,630.88s10.21,8.07,18.34,0c0,0,5.77,5,10.17.77" transform="translate(-248.02 -471.43)"/><path id="eye_light" data-name="eye light" class="cls-24" d="M427.81,595s1-4.59,4-4.21S439.25,604.11,427.81,595Z" transform="translate(-248.02 -471.43)"/><path id="eye_light-2" data-name="eye light" class="cls-25" d="M473,590.74a3.72,3.72,0,0,1,.21-5,2.73,2.73,0,0,1,2.83-.88C478.66,585.75,480.42,598.87,473,590.74Z" transform="translate(-248.02 -471.43)"/><path id="eye-3" data-name="eye" class="cls-26" d="M426.67,604.16s6.34-4.32,9.74,4.23C436.41,608.39,431.1,618.58,426.67,604.16Z" transform="translate(-248.02 -471.43)"/><path id="eye-4" data-name="eye" class="cls-26" d="M472.11,599s3.92-1.48,5.43,2.48S473.68,609.45,472.11,599Z" transform="translate(-248.02 -471.43)"/><path id="paw-6" data-name="paw" class="cls-20" d="M518.4,745.28c.77,3.48.15,8.82-2.27,11.4" transform="translate(-248.02 -471.43)"/></g></svg>